<svg id="Ebene_1" data-name="Ebene 1" xmlns="http://www.w3.org/2000/svg" viewBox="0 0 1190.55 841.89"><defs><style>.cls-1{fill:#fff;}.cls-2{fill:#004f98;}</style></defs><title>fsi_trier_weiss</title><rect class="cls-1" x="147.58" y="260.1" width="284.82" height="85.82"/><polyline class="cls-1" points="236.55 447.24 432.39 447.24 432.39 367.98 147.58 367.98 147.58 475.47 147.58 599.22 236.26 599.22"/><rect class="cls-1" x="808.51" y="440.35" width="231.92" height="85.82" transform="translate(1407.73 -441.22) rotate(90)"/><path class="cls-1" d="M270.85,599.36H690c1.83,0,3.66-.08,5.48-.24,95.33-8.66,156.23-84.57,150.49-151l-96,.41c-3,16.41-31,55.79-71.61,56l-407.51.88Z"/><path class="cls-1" d="M884.72,260.26H633.52c-1.83,0-3.67.07-5.48.24C500,272.62,471.63,381.64,477.36,448.1H579.83s-5.1-36.32,14.34-68.71C606.38,359,634.92,347.19,643,346c1.3-.19,12.58-.28,13.89-.29l227.74.14Z"/><path class="cls-1" d="M147.57,680.42v-34h13.09v33.66c0,9.69,4.85,14.71,12.84,14.71s12.83-4.85,12.83-14.28V646.42h13.1V680c0,18-10.12,26.86-26.1,26.86S147.57,697.93,147.57,680.42Z"/><path class="cls-1" d="M207.67,646.42h12.07l27.88,36.64V646.42h12.92v59.5H249.4L220.59,668.1v37.82H207.67Z"/><path class="cls-1" d="M270.31,646.42H283.4v59.5H270.31Z"/><path class="cls-1" d="M289.78,646.42h14.45l15.55,41.91,15.56-41.91h14.11l-24.06,59.93H313.83Z"/><path class="cls-1" d="M356.93,646.42h44.88v11.65H369.93v12.07H398v11.64H369.93v12.5h32.3v11.64h-45.3Z"/><path class="cls-1" d="M410.48,646.42h27.2c7.56,0,13.43,2.12,17.34,6,3.31,3.31,5.1,8,5.1,13.6v.17c0,9.6-5.19,15.64-12.75,18.44l14.53,21.25H446.6l-12.75-19H423.57v19H410.48Zm26.35,28.9c6.37,0,10-3.4,10-8.41v-.17c0-5.62-3.91-8.5-10.29-8.5h-13v17.08Z"/><path class="cls-1" d="M466.15,697.25l7.73-9.26c5.36,4.42,11,7.22,17.77,7.22,5.36,0,8.59-2.12,8.59-5.61v-.17c0-3.31-2-5-12-7.56-12-3.06-19.72-6.38-19.72-18.19v-.17c0-10.8,8.67-17.94,20.83-17.94a34.48,34.48,0,0,1,22.1,7.56l-6.8,9.87c-5.27-3.66-10.46-5.87-15.47-5.87s-7.66,2.29-7.66,5.19v.17c0,3.91,2.56,5.18,12.84,7.82,12.07,3.14,18.87,7.48,18.87,17.85v.17c0,11.81-9,18.44-21.84,18.44A37.85,37.85,0,0,1,466.15,697.25Z"/><path class="cls-1" d="M521.82,646.42h13.1v59.5h-13.1Z"/><path class="cls-1" d="M560.25,658.49H542.14V646.42h49.3v12.07h-18.1v47.43H560.25Z"/><path class="cls-1" d="M611.67,646h12.07l25.5,59.93H635.56l-5.44-13.34H605l-5.44,13.34H586.17Zm-9.27-15.72h12.42v11.47H602.4Zm23,50.75-7.91-19.3-7.9,19.3Zm-4.84-50.75H633v11.47H620.6Z"/><path class="cls-1" d="M663.77,658.49h-18.1V646.42H695v12.07H676.86v47.43H663.77Z"/><path class="cls-1" d="M742.65,658.49h-18.1V646.42h49.3v12.07H755.74v47.43H742.65Z"/><path class="cls-1" d="M782.18,646.42h27.2c7.56,0,13.43,2.12,17.34,6,3.31,3.31,5.1,8,5.1,13.6v.17c0,9.6-5.19,15.64-12.75,18.44l14.53,21.25H818.3l-12.75-19H795.27v19H782.18Zm26.35,28.9c6.37,0,10-3.4,10-8.41v-.17c0-5.62-3.91-8.5-10.29-8.5h-13v17.08Z"/><path class="cls-1" d="M840.82,646.42h13.09v59.5H840.82Z"/><path class="cls-1" d="M865.39,646.42h44.88v11.65H878.4v12.07h28.05v11.64H878.4v12.5h32.3v11.64H865.39Z"/><path class="cls-1" d="M918.94,646.42h27.2c7.57,0,13.43,2.12,17.34,6,3.32,3.31,5.1,8,5.1,13.6v.17c0,9.6-5.18,15.64-12.75,18.44l14.54,21.25h-15.3l-12.75-19H932v19H918.94Zm26.35,28.9c6.38,0,10-3.4,10-8.41v-.17c0-5.62-3.91-8.5-10.28-8.5H932v17.08Z"/><rect class="cls-2" x="881.53" y="260.1" width="86.01" height="86.01"/></svg>